<?xml version="1.0" standalone="no"?>
<!DOCTYPE svg PUBLIC "-//W3C//DTD SVG 20010904//EN"
 "http://www.w3.org/TR/2001/REC-SVG-20010904/DTD/svg10.dtd">
<svg version="1.0" xmlns="http://www.w3.org/2000/svg"
 width="260.000000pt" height="260.000000pt" viewBox="0 0 260.000000 260.000000"
 preserveAspectRatio="xMidYMid meet">
<metadata>
Created by potrace 1.14, written by Peter Selinger 2001-2017
</metadata>
<g transform="translate(0.000000,260.000000) scale(0.100000,-0.100000)"
fill="#000000" stroke="none">
<path d="M182 2408 c-17 -17 -17 -2209 0 -2226 17 -17 2209 -17 2226 0 17 17
17 2209 0 2226 -17 17 -2209 17 -2226 0z m1491 -657 c21 -20 21 -21 2 -93 -16
-64 -19 -111 -18 -388 0 -187 4 -335 11 -365 15 -72 1 -99 -55 -103 -34 -3
-48 2 -66 20 -23 23 -24 33 -31 198 -4 96 -9 176 -11 178 -2 2 -75 -3 -162
-12 -87 -9 -175 -16 -195 -16 -67 0 -70 -4 -63 -84 4 -39 14 -107 22 -150 l17
-79 -28 -23 c-49 -43 -102 -23 -125 46 -6 19 -17 90 -23 157 -10 115 -12 123
-32 123 -79 0 -89 104 -11 112 l30 3 2 90 c5 153 22 286 41 319 16 27 24 31
61 30 29 -1 49 -8 63 -22 l21 -21 -23 -113 c-12 -62 -25 -150 -28 -195 -5 -82
-5 -83 19 -83 35 0 413 40 417 44 2 2 6 97 9 211 l6 206 26 20 c32 26 94 21
124 -10z"/>
</g>
</svg>
